Coordinates
version=1
nRows=9
nColumns=63
inDegrees=yes

Units are S.I. units (second, meters, Newtons, ...)
If the header above contains a line with 'inDegrees', this indicates whether rotational values are in degrees (yes) or radians (no).

endheader
time	pelvis_tilt	pelvis_list	pelvis_rotation	pelvis_tx	pelvis_ty	pelvis_tz	hip_flexion_r	hip_adduction_r	hip_rotation_r	knee_angle_r	knee_angle_r_beta	ankle_angle_r	subtalar_angle_r	mtp_angle_r	hip_flexion_l	hip_adduction_l	hip_rotation_l	knee_angle_l	knee_angle_l_beta	ankle_angle_l	subtalar_angle_l	mtp_angle_l	L5_S1_Flex_Ext	L5_S1_Lat_Bending	L5_S1_axial_rotation	L4_L5_Flex_Ext	L4_L5_Lat_Bending	L4_L5_axial_rotation	L3_L4_Flex_Ext	L3_L4_Lat_Bending	L3_L4_axial_rotation	L2_L3_Flex_Ext	L2_L3_Lat_Bending	L2_L3_axial_rotation	L1_L2_Flex_Ext	L1_L2_Lat_Bending	L1_L2_axial_rotation	L1_T12_Flex_Ext	L1_T12_Lat_Bending	L1_T12_axial_rotation	Abs_r3	Abs_r2	Abs_r1	Abs_t1	Abs_t2	neck_flexion	neck_bending	neck_rotation	arm_flex_r	arm_add_r	arm_rot_r	elbow_flex_r	pro_sup_r	wrist_flex_r	wrist_dev_r	arm_flex_l	arm_add_l	arm_rot_l	elbow_flex_l	pro_sup_l	wrist_flex_l	wrist_dev_l
      0.00000000	     -3.48657169	     -3.41405148	     91.70050815	      0.21603123	      0.80731946	      0.68717604	     10.04046617	     -5.17560049	     -6.85037639	     16.43071788	      0.28677013	     26.47903944	      4.50695407	      0.00000000	      4.88050387	      3.69028518	      3.33447983	      1.26254842	      0.02203563	     20.67716109	     -8.58850499	      0.00000000	      0.27806036	     -0.32864125	     -0.70397370	      0.51638589	     -0.43709287	     -0.74797206	      0.45682537	     -0.79905835	     -0.74797206	      0.31779519	     -0.79905835	     -0.61597699	      0.25820685	     -0.67016525	     -0.57197863	      0.15888369	     -0.50906530	     -0.52798027	      1.98615735	     -3.71765560	     -3.91529052	      0.00000000	      0.00000000	     28.02576820	      6.34005285	     -0.53831311	     15.19161892	     -7.41865389	     62.97477104	     43.57685318	     87.22855171	     21.48051533	      2.17218134	      2.91816118	    -17.05642975	     40.61066013	     58.33526846	     72.40980655	     14.09151397	     -2.01742279
      0.02941176	     -2.57630070	     -3.01462579	     93.59792914	      0.21203861	      0.80771451	      0.68237998	      8.17915289	     -4.60018667	     -9.32771042	     14.87741410	      0.25965986	     26.53040236	      5.35564832	      0.00000000	      3.85857971	      3.04976938	      8.11595635	      1.05982277	      0.01849740	     20.09285397	    -12.11950665	      0.00000000	      0.27012692	     -0.20802701	     -1.09071210	      0.50165270	     -0.27667593	     -1.15888161	      0.44379151	     -0.50579688	     -1.15888161	      0.30872806	     -0.50579688	     -0.95437309	      0.25083986	     -0.42420869	     -0.88620358	      0.15435052	     -0.32223384	     -0.81803407	      1.92948957	     -2.35324318	     -6.06621348	      0.00000000	      0.00000000	     27.99441603	      6.20868079	     -0.42691531	     13.13243351	     -8.17698809	     58.92438979	     44.77709012	     82.13653390	     20.54115802	      2.29798933	      2.88823336	    -15.95329704	     39.71733175	     56.94532469	     77.33268549	     16.82958668	     -3.22287523
      0.05882353	     -2.00505120	     -2.62804196	     95.05076956	      0.20933630	      0.80819886	      0.67836764	      6.63707675	     -4.15187351	    -11.08818166	     13.65726162	      0.23836418	     26.59519073	      6.10905393	      0.00000000	      3.04685631	      2.59356073	     10.53516080	      0.96631791	      0.01686543	     20.22913428	    -13.04250862	      0.00000000	      0.26360828	     -0.13445112	     -1.32179955	      0.48954694	     -0.17881999	     -1.40441202	      0.43308205	     -0.32690445	     -1.40441202	      0.30127791	     -0.32690445	     -1.15657461	      0.24478665	     -0.27417272	     -1.07396213	      0.15062577	     -0.20826478	     -0.99134966	      1.88292760	     -1.52093793	     -7.35145255	      0.00000000	      0.00000000	     27.96573141	      5.94028624	     -0.58004006	     11.75571842	     -8.78784366	     56.65286490	     45.91197688	     75.19223057	     19.71301185	      4.12237704	      3.13968825	    -15.33900848	     39.54605397	     56.22719325	     80.81319121	     18.13639290	     -4.87269279
      0.08823529	     -1.76245914	     -2.14854058	     96.04326801	      0.20785684	      0.80896002	      0.67494706	      5.19421907	     -3.80387199	    -11.63252031	     12.58833741	      0.21970794	     26.53480583	      6.02023249	      0.00000000	      2.22744073	      2.35401448	     11.49104990	      0.88729608	      0.01548624	     20.72342491	    -12.70241919	      0.00000000	      0.23892057	     -0.10349278	     -1.44816855	      0.44369938	     -0.13764539	     -1.53867909	      0.39252260	     -0.25163234	     -1.53867909	      0.27306231	     -0.25163234	     -1.26714748	      0.22186164	     -0.21104247	     -1.17663695	      0.13651921	     -0.16031031	     -1.08612641	      1.70658570	     -1.17073100	     -8.05427903	      0.00000000	      0.00000000	     27.93549063	      5.80011994	     -0.58089751	     10.97097975	     -9.05743120	     55.03536757	     46.47578228	     73.84054356	     19.36447213	      3.89207439	      3.34573885	    -15.16707138	     39.59462419	     56.35670505	     81.56338660	     18.05771485	     -5.14103028
      0.11764706	     -1.58687172	     -1.85371116	     97.46484074	      0.20622925	      0.80953261	      0.67217151	      4.04904925	     -3.55125671	    -12.76653219	     11.76398734	      0.20532031	     26.65567126	      6.23057772	      0.00000000	      1.77357023	      2.17265178	     12.76931092	      0.90579452	      0.01580910	     21.21883150	    -12.32532776	      0.00000000	      0.23810602	     -0.08926658	     -1.60403040	      0.44218669	     -0.11872455	     -1.70428230	      0.39118438	     -0.21704277	     -1.70428230	      0.27213137	     -0.21704277	     -1.40352660	      0.22110525	     -0.18203241	     -1.30327470	      0.13605378	     -0.13827394	     -1.20302280	      1.70076749	     -1.00980143	     -8.92113589	      0.00000000	      0.00000000	     27.90636092	      5.30473088	     -1.12323957	     10.18561160	     -9.24200376	     53.09488772	     47.30268103	     72.37915709	     19.52705031	      6.34696629	      3.67438818	    -15.19113265	     39.84180293	     56.70483959	     83.35553662	     17.47926910	     -6.28758523
      0.14705882	     -1.66751868	     -1.63296170	     97.97053978	      0.20593347	      0.81002317	      0.66961942	      3.27950365	     -3.55710851	    -13.47020427	     11.29523718	      0.19713908	     27.03547377	      7.16279638	      0.00000000	      1.39240795	      2.22271207	     13.09324492	      0.93530912	      0.01632422	     21.66874423	    -12.17825256	      0.00000000	      0.24702234	     -0.10144413	     -1.58974715	      0.45874520	     -0.13492069	     -1.68910635	      0.40583301	     -0.24665126	     -1.68910635	      0.28232184	     -0.24665126	     -1.39102876	      0.22938495	     -0.20686487	     -1.29166956	      0.14114857	     -0.15713696	     -1.19231036	      1.76445590	     -1.14755628	     -8.84169672	      0.00000000	      0.00000000	     27.88026371	      4.92995876	     -1.24926679	      9.48141475	     -9.20636190	     50.96470082	     47.97961717	     71.93926977	     20.22606714	      9.64855376	      3.91228965	    -15.32998722	     40.13143562	     57.12948808	     84.40178464	     16.13623979	     -7.70582447
      0.17647059	     -1.77364102	     -1.34588660	     98.53373421	      0.20580818	      0.81062875	      0.66742984	      2.50621235	     -3.50415240	    -13.55411007	     10.79980638	      0.18849218	     27.43000494	      7.22819984	      0.00000000	      1.00548008	      2.26421921	     13.18236699	      0.99484008	      0.01736323	     22.12639048	    -11.66437486	      0.00000000	      0.24662425	     -0.12020131	     -1.66544346	      0.45800589	     -0.15986774	     -1.76953368	      0.40517898	     -0.29225746	     -1.76953368	      0.28186685	     -0.29225746	     -1.45726303	      0.22901528	     -0.24511451	     -1.35317281	      0.14092110	     -0.18619183	     -1.24908260	      1.76161235	     -1.35974123	     -9.26269689	      0.00000000	      0.00000000	     27.81072792	      4.87732535	     -0.93633848	      9.24092940	     -8.91391879	     49.87685352	     48.08292076	     71.84661503	     20.49086741	     11.55809614	      3.74686360	    -15.48775320	     39.62352990	     57.68680939	     84.34949328	     14.69316358	     -8.19691008
      0.20588235	     -1.80532358	     -1.21780046	     98.61929948	      0.20619204	      0.81098804	      0.66536098	      2.14509519	     -3.41577869	    -13.48158673	     10.57923939	      0.18464256	     27.99086947	      7.17232716	      0.00000000	      0.79133570	      2.24638021	     13.19466361	      1.10314860	      0.01925358	     22.33661775	    -11.66615192	      0.00000000	      0.26984859	     -0.13099413	     -1.65554384	      0.50113582	     -0.17422219	     -1.75901533	      0.44333425	     -0.31849913	     -1.75901533	      0.30840995	     -0.31849913	     -1.44860086	      0.25058140	     -0.26712323	     -1.34512937	      0.15419148	     -0.20290991	     -1.24165788	      1.92750149	     -1.48183181	     -9.20763819	      0.00000000	      0.00000000	     27.74135031	      4.75563028	     -0.79170070	      9.22627689	     -8.81080520	     49.72888852	     47.85465413	     71.82948997	     20.37800826	     11.73546131	      3.75292595	    -15.51976819	     39.44845967	     57.64206478	     84.31734067	     14.49838143	     -8.27923498
      0.23529412	     -2.05906369	     -0.94356271	     99.01813985	      0.20663793	      0.81154249	      0.66311768	      1.43526908	     -3.44240740	    -12.88472417	     10.05602112	      0.17551068	     28.13281982	      6.17168304	      0.00000000	      0.41412614	      2.41807577	     13.06199913	      1.28597368	      0.02244447	     22.58295173	    -10.97137721	      0.00000000	      0.26014760	     -0.16233650	     -1.78794618	      0.48312011	     -0.21590754	     -1.89969282	      0.42739650	     -0.39470496	     -1.89969282	      0.29732269	     -0.39470496	     -1.56445291	      0.24157306	     -0.33103659	     -1.45270627	      0.14864834	     -0.25145923	     -1.34095964	      1.85820831	     -1.83638292	     -9.94402029	      0.00000000	      0.00000000	     27.68788630	      5.04378395	      0.60165360	      8.87676959	     -8.13002189	     48.43844687	     47.77930044	     71.37244707	     20.10886124	     14.61738044	      3.04888126	    -15.75838565	     38.92472492	     57.88637490	     84.43023755	     11.65797143	     -9.47813768
